<svg xmlns="http://www.w3.org/2000/svg" viewBox="0 0 185.7 139.7"><defs><style>.cls-1{fill:#5d5b66;}.cls-1,.cls-2,.cls-3,.cls-4{fill-rule:evenodd;}.cls-2{fill:#15c3c2;}.cls-3{fill:#feb249;}.cls-4{fill:#f05854;}</style></defs><title>VandyApps</title><g id="_-" data-name="-"><g id="_--2" data-name="-"><path class="cls-1" d="M142.53,70.56H95a15.84,15.84,0,0,0,0,31.68h47.52a15.84,15.84,0,1,0,0-31.68Z"/></g></g><g id="_T" data-name="\T"><g id="_T-2" data-name="\T"><path class="cls-2" d="M184.21,117.17,133.74,9.11C130,1.2,121.65-.21,113.76,3.5s-12.29,11.12-8.59,19l50.48,108.06a15.78,15.78,0,1,0,28.56-13.42Z"/></g></g><g id="_Y" data-name="\Y"><g id="_Y-2" data-name="\Y"><path class="cls-3" d="M81.94,117.13,30.58,9.11A16.15,16.15,0,0,0,9.24,1.5a15.71,15.71,0,0,0-7.73,21l51.36,107c3.76,7.91,12.31,11.31,20.34,7.61S85.7,125,81.94,117.13Z"/></g></g><g id="_R" data-name="/R"><g id="_R-2" data-name="/R"><path class="cls-4" d="M126.09,1.5a16.17,16.17,0,0,0-21.36,7.61L53.31,117.17a15.71,15.71,0,0,0,7.73,21,16.17,16.17,0,0,0,21.36-7.61L133.83,22.53A15.71,15.71,0,0,0,126.09,1.5Z"/></g></g></svg>